# xmcd
#
# Track frame offsets: 
#        150
#        23670
#        40702
#        74340
#        97331
#        125732
#        149874
#        171982
#        193429
#        216131
#        241818
#        273096
#
# Disc length: 3739 seconds
#
# Revision: 0
# Processed by: cddbd v1.5.2PL0 Copyright (c) Steve Scherf et al.
# Submitted via: ExactAudioCopy v1.0b1
#
DISCID=be0e990c
DTITLE=Anselm's Rythem'n Brass Power feat. Waymond Harding - Talking B
DTITLE=rass
DYEAR=1900
DGENRE=Blues
TTITLE0=River Deep Mountain High
TTITLE1=634-5789
TTITLE2=Summertime
TTITLE3=Nothing Compares
TTITLE4=My Girl
TTITLE5=Rattle Trap
TTITLE6=Sledgehammer
TTITLE7=The Thrill Is Gone
TTITLE8=Dancin' In The Street
TTITLE9=Little Wing
TTITLE10=Them Changes
TTITLE11=Brassomania
EXTD=
EXTT0=
EXTT1=
EXTT2=
EXTT3=
EXTT4=
EXTT5=
EXTT6=
EXTT7=
EXTT8=
EXTT9=
EXTT10=
EXTT11=
PLAYORDER=
